<?xml version="1.0" encoding="utf-8"?>
<svg xmlns="http://www.w3.org/2000/svg" viewBox="326.1089 102.1673 101.295 141.132" width="101.295px" height="141.132px"><g transform="matrix(1, 0, 0, 1, 166.23191833496094, 44.39128112792969)" id="object-0"><path fill="#F97F02" opacity="1.000000" stroke="none" d="M 163.334 187.415 C 165.562 185.034 167.631 182.739 169.786 180.528 C 171.766 178.496 172.451 176.029 172.452 173.306 C 172.456 162.976 172.454 152.646 172.404 142.316 C 172.399 141.478 172.264 140.414 171.755 139.842 C 168.297 135.956 164.728 132.169 161.172 128.372 C 160.921 128.104 160.484 128.011 159.877 127.709 C 163.647 123.509 167.344 119.335 171.103 115.218 C 175.708 110.175 180.342 105.156 185.029 100.188 C 185.703 99.474 186.678 98.91 187.621 98.605 C 194.773 96.295 201.952 94.066 209.517 91.687 C 208.522 90.647 207.685 89.771 206.715 88.757 C 222.678 74.59 240.586 64.159 261.172 57.776 C 258.176 80.084 248.674 99.36 235.416 117.222 C 234.616 116.592 233.89 116.02 233.308 115.561 C 231.673 122.228 230.111 128.87 228.37 135.465 C 228.019 136.793 227.203 138.152 226.235 139.139 C 221.116 144.358 215.88 149.464 210.776 154.518 C 213.64 157.309 216.345 159.944 219.261 162.786 C 221.302 160.607 223.667 158.082 226.157 155.423 C 229.072 158.501 231.749 161.328 234.362 164.087 C 231.708 166.661 228.819 169.463 225.76 172.43 C 223.524 170.081 220.959 167.387 218.316 164.61 C 213.421 169.001 208.731 173.208 203.965 177.483 C 206.924 180.396 209.812 183.239 212.672 186.054 C 208.268 190.419 203.969 194.68 199.704 198.908 C 194.374 193.639 188.85 188.18 183.134 182.531 C 178.191 187.527 173.346 192.424 168.64 197.181 C 166.059 194.768 163.516 192.39 160.559 189.625 C 161.574 188.827 162.394 188.182 163.334 187.415 M 187.78 169.833 C 189.058 171.077 190.336 172.322 191.544 173.497 C 194.477 170.596 197.461 167.647 200.296 164.844 C 197.319 161.92 194.294 158.949 191.578 156.281 C 188.766 158.953 185.791 161.78 182.383 165.018 C 184.146 166.584 185.841 168.089 187.78 169.833 Z"/></g></svg>